<svg xmlns="http://www.w3.org/2000/svg" xmlns:xlink="http://www.w3.org/1999/xlink" width="50" zoomAndPan="magnify" viewBox="0 0 37.5 37.499999" height="50" preserveAspectRatio="xMidYMid meet" version="1.0"><defs><clipPath id="7939a7f701"><path d="M 0 5 L 37.007812 5 L 37.007812 31 L 0 31 Z M 0 5 " clip-rule="nonzero"/></clipPath><clipPath id="6e4fe12d58"><path d="M 14 29 L 23 29 L 23 35.015625 L 14 35.015625 Z M 14 29 " clip-rule="nonzero"/></clipPath><clipPath id="db8a42f4f9"><path d="M 12 34 L 25 34 L 25 35.015625 L 12 35.015625 Z M 12 34 " clip-rule="nonzero"/></clipPath><clipPath id="5dac2e4d1c"><path d="M 15 1.710938 L 35 1.710938 L 35 11 L 15 11 Z M 15 1.710938 " clip-rule="nonzero"/></clipPath></defs><g clip-path="url(#7939a7f701)"><path fill="#00bc91" d="M 33.988281 30.257812 L 3.019531 30.257812 C 1.355469 30.257812 0 28.902344 0 27.238281 L 0 8.613281 C 0 6.949219 1.355469 5.59375 3.019531 5.59375 L 16.230469 5.59375 C 16.460938 5.59375 16.648438 5.78125 16.648438 6.015625 C 16.648438 6.246094 16.460938 6.433594 16.230469 6.433594 L 3.019531 6.433594 C 1.816406 6.433594 0.835938 7.410156 0.835938 8.613281 L 0.835938 27.238281 C 0.835938 28.441406 1.816406 29.417969 3.019531 29.417969 L 33.988281 29.417969 C 35.191406 29.417969 36.167969 28.441406 36.167969 27.238281 L 36.167969 8.613281 C 36.167969 7.410156 35.191406 6.433594 33.988281 6.433594 C 33.757812 6.433594 33.570312 6.246094 33.570312 6.015625 C 33.570312 5.78125 33.757812 5.59375 33.988281 5.59375 C 35.652344 5.59375 37.007812 6.949219 37.007812 8.613281 L 37.007812 27.238281 C 37.007812 28.902344 35.652344 30.257812 33.988281 30.257812 Z M 33.988281 30.257812 " fill-opacity="1" fill-rule="nonzero"/></g><g clip-path="url(#6e4fe12d58)"><path fill="#00bc91" d="M 15.210938 35.28125 C 15.144531 35.28125 15.078125 35.265625 15.015625 35.234375 C 14.8125 35.125 14.734375 34.871094 14.839844 34.667969 C 15.652344 33.125 15.648438 31.652344 14.835938 30.027344 C 14.734375 29.820312 14.816406 29.566406 15.023438 29.464844 C 15.230469 29.359375 15.480469 29.445312 15.585938 29.652344 C 16.515625 31.511719 16.515625 33.28125 15.582031 35.058594 C 15.507812 35.199219 15.363281 35.28125 15.210938 35.28125 Z M 21.796875 35.28125 C 21.644531 35.28125 21.5 35.199219 21.425781 35.058594 C 20.492188 33.28125 20.488281 31.511719 21.421875 29.652344 C 21.523438 29.445312 21.777344 29.359375 21.984375 29.464844 C 22.1875 29.566406 22.273438 29.820312 22.167969 30.027344 C 21.355469 31.652344 21.355469 33.125 22.164062 34.667969 C 22.273438 34.871094 22.195312 35.125 21.988281 35.234375 C 21.929688 35.265625 21.859375 35.28125 21.796875 35.28125 Z M 21.796875 35.28125 " fill-opacity="1" fill-rule="nonzero"/></g><g clip-path="url(#db8a42f4f9)"><path fill="#00bc91" d="M 23.789062 35.28125 L 13.21875 35.28125 C 12.988281 35.28125 12.800781 35.09375 12.800781 34.863281 C 12.800781 34.632812 12.988281 34.445312 13.21875 34.445312 L 23.789062 34.445312 C 24.019531 34.445312 24.207031 34.632812 24.207031 34.863281 C 24.207031 35.09375 24.019531 35.28125 23.789062 35.28125 Z M 23.789062 35.28125 " fill-opacity="1" fill-rule="nonzero"/></g><g clip-path="url(#5dac2e4d1c)"><path fill="#00bc91" d="M 25.109375 10.304688 C 19.894531 10.304688 15.8125 8.417969 15.8125 6.015625 C 15.8125 3.609375 19.894531 1.726562 25.109375 1.726562 C 30.324219 1.726562 34.40625 3.609375 34.40625 6.015625 C 34.40625 8.417969 30.324219 10.304688 25.109375 10.304688 Z M 25.109375 2.5625 C 22.800781 2.5625 20.632812 2.953125 19.003906 3.664062 C 17.507812 4.316406 16.648438 5.171875 16.648438 6.015625 C 16.648438 6.855469 17.507812 7.714844 19.003906 8.367188 C 20.632812 9.074219 22.800781 9.464844 25.109375 9.464844 C 27.417969 9.464844 29.585938 9.074219 31.214844 8.367188 C 32.710938 7.714844 33.570312 6.855469 33.570312 6.015625 C 33.570312 5.171875 32.710938 4.316406 31.214844 3.664062 C 29.585938 2.953125 27.417969 2.5625 25.109375 2.5625 Z M 25.109375 2.5625 " fill-opacity="1" fill-rule="nonzero"/></g><path fill="#00bc91" d="M 25.109375 15.039062 C 19.894531 15.039062 15.8125 13.15625 15.8125 10.75 C 15.8125 10.519531 16 10.332031 16.230469 10.332031 C 16.460938 10.332031 16.648438 10.519531 16.648438 10.75 C 16.648438 12.417969 20.046875 14.203125 25.109375 14.203125 C 30.171875 14.203125 33.570312 12.417969 33.570312 10.75 C 33.570312 10.519531 33.757812 10.332031 33.988281 10.332031 C 34.21875 10.332031 34.40625 10.519531 34.40625 10.75 C 34.40625 13.15625 30.324219 15.039062 25.109375 15.039062 Z M 25.109375 15.039062 " fill-opacity="1" fill-rule="nonzero"/><path fill="#00bc91" d="M 25.109375 19.773438 C 19.894531 19.773438 15.8125 17.890625 15.8125 15.484375 C 15.8125 15.253906 16 15.066406 16.230469 15.066406 C 16.460938 15.066406 16.648438 15.253906 16.648438 15.484375 C 16.648438 17.152344 20.046875 18.9375 25.109375 18.9375 C 30.171875 18.9375 33.570312 17.152344 33.570312 15.484375 C 33.570312 15.253906 33.757812 15.066406 33.988281 15.066406 C 34.21875 15.066406 34.40625 15.253906 34.40625 15.484375 C 34.40625 17.890625 30.324219 19.773438 25.109375 19.773438 Z M 25.109375 19.773438 " fill-opacity="1" fill-rule="nonzero"/><path fill="#00bc91" d="M 16.230469 15.90625 C 16 15.90625 15.8125 15.71875 15.8125 15.484375 L 15.8125 6.015625 C 15.8125 5.78125 16 5.59375 16.230469 5.59375 C 16.460938 5.59375 16.648438 5.78125 16.648438 6.015625 L 16.648438 15.484375 C 16.648438 15.71875 16.460938 15.90625 16.230469 15.90625 Z M 16.230469 15.90625 " fill-opacity="1" fill-rule="nonzero"/><path fill="#00bc91" d="M 33.988281 15.90625 C 33.757812 15.90625 33.570312 15.71875 33.570312 15.484375 L 33.570312 6.015625 C 33.570312 5.78125 33.757812 5.59375 33.988281 5.59375 C 34.21875 5.59375 34.40625 5.78125 34.40625 6.015625 L 34.40625 15.484375 C 34.40625 15.71875 34.21875 15.90625 33.988281 15.90625 Z M 33.988281 15.90625 " fill-opacity="1" fill-rule="nonzero"/><path fill="#00bc91" d="M 6.414062 19.023438 C 6.320312 19.023438 6.226562 18.992188 6.148438 18.929688 L 3.226562 16.539062 C 3.128906 16.460938 3.074219 16.339844 3.074219 16.214844 C 3.074219 16.089844 3.128906 15.96875 3.226562 15.890625 L 6.148438 13.5 C 6.328125 13.355469 6.589844 13.378906 6.738281 13.558594 C 6.882812 13.738281 6.855469 14.003906 6.679688 14.148438 L 4.152344 16.214844 L 6.679688 18.28125 C 6.855469 18.425781 6.882812 18.691406 6.738281 18.871094 C 6.65625 18.96875 6.535156 19.023438 6.414062 19.023438 Z M 6.414062 19.023438 " fill-opacity="1" fill-rule="nonzero"/><path fill="#00bc91" d="M 11.6875 19.023438 C 11.566406 19.023438 11.449219 18.96875 11.363281 18.871094 C 11.21875 18.691406 11.246094 18.425781 11.425781 18.28125 L 13.949219 16.214844 L 11.425781 14.148438 C 11.246094 14.003906 11.21875 13.738281 11.363281 13.558594 C 11.511719 13.378906 11.773438 13.355469 11.953125 13.5 L 14.875 15.890625 C 14.972656 15.96875 15.027344 16.089844 15.027344 16.214844 C 15.027344 16.339844 14.972656 16.460938 14.875 16.539062 L 11.953125 18.929688 C 11.875 18.992188 11.78125 19.023438 11.6875 19.023438 Z M 11.6875 19.023438 " fill-opacity="1" fill-rule="nonzero"/><path fill="#00bc91" d="M 8.304688 19.417969 C 8.269531 19.417969 8.234375 19.414062 8.195312 19.402344 C 7.972656 19.34375 7.839844 19.113281 7.902344 18.890625 L 9.394531 13.324219 C 9.453125 13.097656 9.683594 12.964844 9.90625 13.027344 C 10.128906 13.085938 10.261719 13.316406 10.203125 13.539062 L 8.710938 19.105469 C 8.660156 19.292969 8.492188 19.417969 8.304688 19.417969 Z M 8.304688 19.417969 " fill-opacity="1" fill-rule="nonzero"/><path fill="#00bc91" d="M 10.488281 23.078125 L 3.675781 23.078125 C 3.441406 23.078125 3.253906 22.890625 3.253906 22.660156 C 3.253906 22.429688 3.441406 22.242188 3.675781 22.242188 L 10.488281 22.242188 C 10.71875 22.242188 10.90625 22.429688 10.90625 22.660156 C 10.90625 22.890625 10.71875 23.078125 10.488281 23.078125 Z M 10.488281 23.078125 " fill-opacity="1" fill-rule="nonzero"/><path fill="#00bc91" d="M 15.367188 23.078125 L 12.886719 23.078125 C 12.65625 23.078125 12.46875 22.890625 12.46875 22.660156 C 12.46875 22.429688 12.65625 22.242188 12.886719 22.242188 L 15.367188 22.242188 C 15.597656 22.242188 15.785156 22.429688 15.785156 22.660156 C 15.785156 22.890625 15.597656 23.078125 15.367188 23.078125 Z M 15.367188 23.078125 " fill-opacity="1" fill-rule="nonzero"/><path fill="#00bc91" d="M 22.414062 23.078125 L 19.933594 23.078125 C 19.703125 23.078125 19.515625 22.890625 19.515625 22.660156 C 19.515625 22.429688 19.703125 22.242188 19.933594 22.242188 L 22.414062 22.242188 C 22.644531 22.242188 22.832031 22.429688 22.832031 22.660156 C 22.832031 22.890625 22.644531 23.078125 22.414062 23.078125 Z M 22.414062 23.078125 " fill-opacity="1" fill-rule="nonzero"/><path fill="#00bc91" d="M 33.484375 23.078125 L 24.8125 23.078125 C 24.582031 23.078125 24.394531 22.890625 24.394531 22.660156 C 24.394531 22.429688 24.582031 22.242188 24.8125 22.242188 L 33.484375 22.242188 C 33.714844 22.242188 33.902344 22.429688 33.902344 22.660156 C 33.902344 22.890625 33.714844 23.078125 33.484375 23.078125 Z M 33.484375 23.078125 " fill-opacity="1" fill-rule="nonzero"/><path fill="#00bc91" d="M 8.5625 26.15625 L 3.675781 26.15625 C 3.441406 26.15625 3.253906 25.96875 3.253906 25.738281 C 3.253906 25.503906 3.441406 25.320312 3.675781 25.320312 L 8.5625 25.320312 C 8.792969 25.320312 8.980469 25.503906 8.980469 25.738281 C 8.980469 25.96875 8.792969 26.15625 8.5625 26.15625 Z M 8.5625 26.15625 " fill-opacity="1" fill-rule="nonzero"/><path fill="#00bc91" d="M 23.121094 26.15625 L 11.164062 26.15625 C 10.929688 26.15625 10.742188 25.96875 10.742188 25.738281 C 10.742188 25.503906 10.929688 25.320312 11.164062 25.320312 L 23.121094 25.320312 C 23.351562 25.320312 23.539062 25.503906 23.539062 25.738281 C 23.539062 25.96875 23.351562 26.15625 23.121094 26.15625 Z M 23.121094 26.15625 " fill-opacity="1" fill-rule="nonzero"/><path fill="#00bc91" d="M 28.40625 26.15625 L 26.246094 26.15625 C 26.015625 26.15625 25.828125 25.96875 25.828125 25.738281 C 25.828125 25.503906 26.015625 25.320312 26.246094 25.320312 L 28.40625 25.320312 C 28.636719 25.320312 28.824219 25.503906 28.824219 25.738281 C 28.824219 25.96875 28.636719 26.15625 28.40625 26.15625 Z M 28.40625 26.15625 " fill-opacity="1" fill-rule="nonzero"/><path fill="#00bc91" d="M 33.511719 26.15625 L 31.351562 26.15625 C 31.121094 26.15625 30.933594 25.96875 30.933594 25.738281 C 30.933594 25.503906 31.121094 25.320312 31.351562 25.320312 L 33.511719 25.320312 C 33.746094 25.320312 33.933594 25.503906 33.933594 25.738281 C 33.933594 25.96875 33.746094 26.15625 33.511719 26.15625 Z M 33.511719 26.15625 " fill-opacity="1" fill-rule="nonzero"/><path fill="#00bc91" d="M 13.574219 10.535156 L 8.792969 10.535156 C 8.5625 10.535156 8.375 10.347656 8.375 10.117188 C 8.375 9.882812 8.5625 9.695312 8.792969 9.695312 L 13.574219 9.695312 C 13.804688 9.695312 13.992188 9.882812 13.992188 10.117188 C 13.992188 10.347656 13.804688 10.535156 13.574219 10.535156 Z M 13.574219 10.535156 " fill-opacity="1" fill-rule="nonzero"/><path fill="#00bc91" d="M 6.191406 10.535156 L 3.675781 10.535156 C 3.441406 10.535156 3.253906 10.347656 3.253906 10.117188 C 3.253906 9.882812 3.441406 9.695312 3.675781 9.695312 L 6.191406 9.695312 C 6.421875 9.695312 6.609375 9.882812 6.609375 10.117188 C 6.609375 10.347656 6.421875 10.535156 6.191406 10.535156 Z M 6.191406 10.535156 " fill-opacity="1" fill-rule="nonzero"/></svg>