<svg xmlns="http://www.w3.org/2000/svg" xmlns:xlink="http://www.w3.org/1999/xlink" width="50" zoomAndPan="magnify" viewBox="0 0 37.5 37.499999" height="50" preserveAspectRatio="xMidYMid meet" version="1.0"><defs><clipPath id="501b2d9557"><path d="M 0 2.984375 L 37.007812 2.984375 L 37.007812 27 L 0 27 Z M 0 2.984375 " clip-rule="nonzero"/></clipPath><clipPath id="60df49e51d"><path d="M 11 30 L 26 30 L 26 34.070312 L 11 34.070312 Z M 11 30 " clip-rule="nonzero"/></clipPath></defs><g clip-path="url(#501b2d9557)"><path fill="#00bc91" d="M 36.582031 26.3125 L 0.421875 26.3125 C 0.191406 26.3125 0 26.125 0 25.890625 L 0 3.417969 C 0 3.183594 0.191406 2.992188 0.421875 2.992188 L 36.582031 2.992188 C 36.816406 2.992188 37.007812 3.183594 37.007812 3.417969 L 37.007812 25.890625 C 37.007812 26.125 36.816406 26.3125 36.582031 26.3125 Z M 0.847656 25.464844 L 36.160156 25.464844 L 36.160156 3.839844 L 0.847656 3.839844 Z M 0.847656 25.464844 " fill-opacity="1" fill-rule="nonzero"/></g><path fill="#00bc91" d="M 34.144531 23.875 L 2.863281 23.875 C 2.628906 23.875 2.4375 23.683594 2.4375 23.449219 L 2.4375 5.855469 C 2.4375 5.621094 2.628906 5.429688 2.863281 5.429688 L 34.144531 5.429688 C 34.378906 5.429688 34.566406 5.621094 34.566406 5.855469 L 34.566406 23.449219 C 34.566406 23.683594 34.378906 23.875 34.144531 23.875 Z M 3.285156 23.027344 L 33.71875 23.027344 L 33.71875 6.277344 L 3.285156 6.277344 Z M 3.285156 23.027344 " fill-opacity="1" fill-rule="nonzero"/><g clip-path="url(#60df49e51d)"><path fill="#00bc91" d="M 25.128906 34.019531 L 11.875 34.019531 C 11.746094 34.019531 11.625 33.960938 11.542969 33.859375 C 11.464844 33.757812 11.433594 33.625 11.464844 33.5 L 12.183594 30.402344 C 12.230469 30.210938 12.398438 30.074219 12.597656 30.074219 L 24.382812 30.074219 C 24.578125 30.074219 24.75 30.210938 24.796875 30.398438 L 25.542969 33.496094 C 25.574219 33.625 25.542969 33.757812 25.464844 33.859375 C 25.382812 33.960938 25.261719 34.019531 25.128906 34.019531 Z M 12.410156 33.171875 L 24.59375 33.171875 L 24.050781 30.921875 L 12.933594 30.921875 Z M 12.410156 33.171875 " fill-opacity="1" fill-rule="nonzero"/></g><path fill="#00bc91" d="M 12.597656 30.921875 C 12.503906 30.921875 12.410156 30.894531 12.332031 30.832031 C 12.148438 30.683594 12.121094 30.417969 12.265625 30.234375 L 15.9375 25.625 C 16.085938 25.441406 16.351562 25.414062 16.535156 25.558594 C 16.71875 25.703125 16.746094 25.972656 16.601562 26.152344 L 12.929688 30.765625 C 12.84375 30.867188 12.722656 30.921875 12.597656 30.921875 Z M 12.597656 30.921875 " fill-opacity="1" fill-rule="nonzero"/><path fill="#00bc91" d="M 24.382812 30.921875 C 24.261719 30.921875 24.136719 30.867188 24.054688 30.765625 L 20.351562 26.15625 C 20.207031 25.972656 20.234375 25.707031 20.417969 25.558594 C 20.601562 25.414062 20.867188 25.441406 21.015625 25.625 L 24.714844 30.234375 C 24.859375 30.417969 24.832031 30.683594 24.648438 30.832031 C 24.570312 30.894531 24.476562 30.921875 24.382812 30.921875 Z M 24.382812 30.921875 " fill-opacity="1" fill-rule="nonzero"/><path fill="#00bc91" d="M 34.144531 10.347656 L 2.863281 10.347656 C 2.628906 10.347656 2.4375 10.160156 2.4375 9.925781 C 2.4375 9.691406 2.628906 9.5 2.863281 9.5 L 34.144531 9.5 C 34.378906 9.5 34.566406 9.691406 34.566406 9.925781 C 34.566406 10.160156 34.378906 10.347656 34.144531 10.347656 Z M 34.144531 10.347656 " fill-opacity="1" fill-rule="nonzero"/><path fill="#00bc91" d="M 4.628906 7.269531 L 6.125 7.269531 L 6.125 8.765625 L 4.628906 8.765625 Z M 4.628906 7.269531 " fill-opacity="1" fill-rule="nonzero"/><path fill="#00bc91" d="M 7.515625 7.269531 L 9.011719 7.269531 L 9.011719 8.765625 L 7.515625 8.765625 Z M 7.515625 7.269531 " fill-opacity="1" fill-rule="nonzero"/><path fill="#00bc91" d="M 10.402344 7.269531 L 11.898438 7.269531 L 11.898438 8.765625 L 10.402344 8.765625 Z M 10.402344 7.269531 " fill-opacity="1" fill-rule="nonzero"/><path fill="#00bc91" d="M 20.683594 12.835938 L 5.265625 12.835938 C 5.03125 12.835938 4.84375 12.648438 4.84375 12.414062 C 4.84375 12.179688 5.03125 11.988281 5.265625 11.988281 L 20.683594 11.988281 C 20.917969 11.988281 21.109375 12.179688 21.109375 12.414062 C 21.109375 12.648438 20.917969 12.835938 20.683594 12.835938 Z M 20.683594 12.835938 " fill-opacity="1" fill-rule="nonzero"/><path fill="#00bc91" d="M 20.683594 14.804688 L 5.265625 14.804688 C 5.03125 14.804688 4.84375 14.613281 4.84375 14.378906 C 4.84375 14.144531 5.03125 13.957031 5.265625 13.957031 L 20.683594 13.957031 C 20.917969 13.957031 21.109375 14.144531 21.109375 14.378906 C 21.109375 14.613281 20.917969 14.804688 20.683594 14.804688 Z M 20.683594 14.804688 " fill-opacity="1" fill-rule="nonzero"/><path fill="#00bc91" d="M 17.304688 16.769531 L 5.265625 16.769531 C 5.03125 16.769531 4.84375 16.578125 4.84375 16.347656 C 4.84375 16.113281 5.03125 15.921875 5.265625 15.921875 L 17.304688 15.921875 C 17.539062 15.921875 17.726562 16.113281 17.726562 16.347656 C 17.726562 16.578125 17.539062 16.769531 17.304688 16.769531 Z M 17.304688 16.769531 " fill-opacity="1" fill-rule="nonzero"/><path fill="#00bc91" d="M 20.683594 21.9375 L 5.375 21.9375 C 5.140625 21.9375 4.953125 21.746094 4.953125 21.511719 L 4.953125 18.433594 C 4.953125 18.199219 5.140625 18.011719 5.375 18.011719 L 20.683594 18.011719 C 20.917969 18.011719 21.109375 18.199219 21.109375 18.433594 L 21.109375 21.511719 C 21.109375 21.746094 20.917969 21.9375 20.683594 21.9375 Z M 5.800781 21.089844 L 20.261719 21.089844 L 20.261719 18.859375 L 5.800781 18.859375 Z M 5.800781 21.089844 " fill-opacity="1" fill-rule="nonzero"/><path fill="#00bc91" d="M 25.421875 17.71875 C 25.304688 17.71875 25.191406 17.667969 25.105469 17.578125 L 23.222656 15.480469 C 23.074219 15.320312 23.074219 15.074219 23.222656 14.914062 L 25.105469 12.816406 C 25.261719 12.640625 25.53125 12.628906 25.703125 12.785156 C 25.878906 12.941406 25.890625 13.210938 25.734375 13.382812 L 24.105469 15.195312 L 25.734375 17.007812 C 25.894531 17.183594 25.878906 17.453125 25.703125 17.609375 C 25.625 17.679688 25.523438 17.71875 25.421875 17.71875 Z M 25.421875 17.71875 " fill-opacity="1" fill-rule="nonzero"/><path fill="#00bc91" d="M 29.710938 17.71875 C 29.609375 17.71875 29.507812 17.679688 29.429688 17.609375 C 29.253906 17.453125 29.238281 17.183594 29.398438 17.011719 L 31.027344 15.195312 L 29.398438 13.382812 C 29.242188 13.210938 29.253906 12.941406 29.429688 12.785156 C 29.601562 12.628906 29.871094 12.640625 30.027344 12.816406 L 31.910156 14.914062 C 32.058594 15.074219 32.058594 15.320312 31.910156 15.480469 L 30.027344 17.578125 C 29.941406 17.667969 29.828125 17.71875 29.710938 17.71875 Z M 29.710938 17.71875 " fill-opacity="1" fill-rule="nonzero"/><path fill="#00bc91" d="M 26.496094 18.402344 C 26.445312 18.402344 26.394531 18.394531 26.34375 18.375 C 26.125 18.292969 26.015625 18.046875 26.101562 17.828125 L 28.242188 12.261719 C 28.324219 12.042969 28.570312 11.933594 28.789062 12.019531 C 29.007812 12.101562 29.117188 12.347656 29.03125 12.566406 L 26.890625 18.132812 C 26.828125 18.300781 26.664062 18.402344 26.496094 18.402344 Z M 26.496094 18.402344 " fill-opacity="1" fill-rule="nonzero"/></svg>