<svg xmlns="http://www.w3.org/2000/svg" xmlns:xlink="http://www.w3.org/1999/xlink" width="50" zoomAndPan="magnify" viewBox="0 0 37.5 37.499999" height="50" preserveAspectRatio="xMidYMid meet" version="1.0"><defs><clipPath id="c3bcecaa99"><path d="M 21 15 L 37 15 L 37 31.410156 L 21 31.410156 Z M 21 15 " clip-rule="nonzero"/></clipPath><clipPath id="41fb1aae68"><path d="M 0 5.503906 L 30 5.503906 L 30 28 L 0 28 Z M 0 5.503906 " clip-rule="nonzero"/></clipPath></defs><g clip-path="url(#c3bcecaa99)"><path fill="#00bc91" d="M 30.4375 31.492188 L 27.675781 31.492188 C 27.433594 31.492188 27.28125 31.371094 27.222656 31.132812 L 26.988281 30.148438 C 25.484375 29.972656 24.484375 29.003906 24.066406 28.507812 L 23.125 28.835938 C 23.019531 28.875 22.914062 28.875 22.808594 28.832031 C 22.703125 28.792969 22.625 28.726562 22.570312 28.628906 L 22.015625 27.671875 C 21.953125 27.5625 21.9375 27.445312 21.972656 27.320312 C 22.003906 27.195312 22.078125 27.101562 22.1875 27.035156 C 22.300781 26.972656 22.417969 26.957031 22.542969 26.988281 C 22.667969 27.023438 22.761719 27.09375 22.824219 27.207031 L 23.183594 27.828125 L 24.074219 27.519531 C 24.300781 27.4375 24.480469 27.5 24.613281 27.699219 C 24.621094 27.714844 25.644531 29.191406 27.378906 29.246094 C 27.613281 29.253906 27.761719 29.371094 27.816406 29.605469 L 28.046875 30.558594 L 30.070312 30.558594 L 30.296875 29.605469 C 30.351562 29.371094 30.5 29.253906 30.738281 29.246094 C 32.484375 29.191406 33.492188 27.714844 33.5 27.699219 C 33.636719 27.5 33.816406 27.441406 34.042969 27.519531 L 34.933594 27.832031 L 35.898438 26.15625 L 35.125 25.5 C 35.035156 25.421875 34.980469 25.328125 34.964844 25.210938 C 34.949219 25.09375 34.972656 24.988281 35.035156 24.890625 C 35.652344 23.945312 35.234375 22.179688 35.019531 21.578125 C 34.949219 21.382812 34.992188 21.214844 35.148438 21.078125 L 35.898438 20.390625 L 34.914062 18.691406 L 33.910156 19.101562 C 33.792969 19.148438 33.675781 19.148438 33.558594 19.101562 C 33.445312 19.054688 33.359375 18.976562 33.308594 18.863281 C 32.652344 17.425781 30.652344 17.289062 30.628906 17.289062 C 30.414062 17.277344 30.273438 17.164062 30.210938 16.957031 L 29.902344 15.945312 L 29.054688 15.945312 C 28.925781 15.945312 28.816406 15.898438 28.726562 15.808594 C 28.636719 15.714844 28.589844 15.605469 28.589844 15.476562 C 28.589844 15.347656 28.636719 15.238281 28.726562 15.148438 C 28.816406 15.058594 28.925781 15.011719 29.054688 15.011719 L 30.25 15.011719 C 30.480469 15.011719 30.628906 15.121094 30.695312 15.34375 L 31.015625 16.394531 C 31.671875 16.492188 33.144531 16.847656 33.9375 18.078125 L 34.933594 17.671875 C 35.042969 17.628906 35.152344 17.625 35.261719 17.664062 C 35.371094 17.703125 35.453125 17.769531 35.511719 17.871094 L 36.894531 20.25 C 36.949219 20.34375 36.96875 20.445312 36.953125 20.554688 C 36.933594 20.664062 36.886719 20.753906 36.804688 20.828125 L 35.988281 21.566406 C 36.179688 22.226562 36.539062 23.824219 36.011719 25.03125 L 36.792969 25.695312 C 36.878906 25.769531 36.929688 25.859375 36.949219 25.972656 C 36.96875 26.082031 36.953125 26.1875 36.894531 26.28125 L 35.546875 28.628906 C 35.492188 28.726562 35.414062 28.792969 35.308594 28.832031 C 35.203125 28.875 35.097656 28.875 34.992188 28.835938 L 34.050781 28.507812 C 33.628906 29.003906 32.628906 29.972656 31.125 30.148438 L 30.890625 31.132812 C 30.835938 31.371094 30.683594 31.492188 30.4375 31.492188 Z M 30.4375 31.492188 " fill-opacity="1" fill-rule="nonzero"/></g><path fill="#00bc91" d="M 26.167969 25.15625 C 26.039062 25.15625 25.925781 25.113281 25.835938 25.019531 L 24.421875 23.601562 C 24.328125 23.511719 24.285156 23.402344 24.285156 23.273438 C 24.285156 23.144531 24.328125 23.035156 24.421875 22.941406 L 25.878906 21.480469 C 25.96875 21.386719 26.078125 21.339844 26.210938 21.339844 C 26.339844 21.339844 26.449219 21.386719 26.542969 21.476562 C 26.632812 21.570312 26.679688 21.679688 26.679688 21.808594 C 26.679688 21.9375 26.632812 22.050781 26.539062 22.140625 L 25.410156 23.273438 L 26.496094 24.363281 C 26.644531 24.507812 26.675781 24.679688 26.597656 24.871094 C 26.515625 25.0625 26.375 25.15625 26.167969 25.15625 Z M 26.167969 25.15625 " fill-opacity="1" fill-rule="nonzero"/><path fill="#00bc91" d="M 31.949219 25.15625 C 31.742188 25.15625 31.597656 25.0625 31.519531 24.871094 C 31.4375 24.679688 31.472656 24.507812 31.621094 24.363281 L 32.707031 23.273438 L 31.578125 22.140625 C 31.484375 22.050781 31.441406 21.9375 31.441406 21.808594 C 31.441406 21.679688 31.484375 21.570312 31.578125 21.480469 C 31.667969 21.390625 31.777344 21.34375 31.90625 21.34375 C 32.035156 21.34375 32.144531 21.390625 32.238281 21.480469 L 33.695312 22.941406 C 33.785156 23.035156 33.832031 23.144531 33.832031 23.273438 C 33.832031 23.402344 33.785156 23.511719 33.695312 23.601562 L 32.28125 25.019531 C 32.1875 25.113281 32.078125 25.15625 31.949219 25.15625 Z M 31.949219 25.15625 " fill-opacity="1" fill-rule="nonzero"/><path fill="#00bc91" d="M 27.980469 27.128906 C 27.933594 27.128906 27.886719 27.121094 27.839844 27.105469 C 27.714844 27.066406 27.625 26.992188 27.566406 26.875 C 27.507812 26.761719 27.496094 26.644531 27.535156 26.519531 L 29.691406 19.699219 C 29.730469 19.578125 29.804688 19.484375 29.921875 19.425781 C 30.035156 19.367188 30.152344 19.355469 30.277344 19.394531 C 30.398438 19.433594 30.492188 19.511719 30.550781 19.625 C 30.609375 19.738281 30.621094 19.859375 30.582031 19.980469 L 28.425781 26.800781 C 28.355469 27.019531 28.207031 27.128906 27.980469 27.128906 Z M 27.980469 27.128906 " fill-opacity="1" fill-rule="nonzero"/><g clip-path="url(#41fb1aae68)"><path fill="#00bc91" d="M 22.421875 27.90625 L 1.273438 27.90625 C 1.101562 27.90625 0.941406 27.875 0.785156 27.8125 C 0.628906 27.746094 0.492188 27.65625 0.375 27.535156 C 0.253906 27.417969 0.164062 27.28125 0.0976562 27.125 C 0.03125 26.972656 0 26.808594 0 26.640625 L 0 6.78125 C 0 6.613281 0.03125 6.453125 0.0976562 6.296875 C 0.160156 6.140625 0.253906 6.003906 0.371094 5.886719 C 0.492188 5.769531 0.628906 5.675781 0.785156 5.613281 C 0.9375 5.546875 1.101562 5.515625 1.269531 5.515625 L 28.253906 5.515625 C 28.421875 5.515625 28.585938 5.546875 28.738281 5.613281 C 28.894531 5.675781 29.03125 5.769531 29.152344 5.886719 C 29.269531 6.003906 29.363281 6.140625 29.425781 6.296875 C 29.492188 6.453125 29.523438 6.613281 29.523438 6.78125 L 29.523438 15.476562 C 29.523438 15.605469 29.476562 15.714844 29.386719 15.808594 C 29.296875 15.898438 29.1875 15.945312 29.058594 15.945312 L 28.210938 15.945312 L 27.902344 16.957031 C 27.839844 17.167969 27.699219 17.277344 27.480469 17.289062 C 27.460938 17.289062 25.460938 17.425781 24.804688 18.863281 C 24.753906 18.976562 24.667969 19.054688 24.554688 19.101562 C 24.4375 19.148438 24.320312 19.148438 24.203125 19.101562 L 23.199219 18.691406 L 22.210938 20.390625 L 22.96875 21.074219 C 23.121094 21.214844 23.164062 21.382812 23.097656 21.578125 C 22.882812 22.179688 22.464844 23.949219 23.078125 24.886719 C 23.144531 24.988281 23.167969 25.09375 23.148438 25.210938 C 23.132812 25.328125 23.078125 25.421875 22.988281 25.5 L 22.21875 26.15625 L 22.824219 27.207031 C 22.867188 27.28125 22.886719 27.359375 22.886719 27.441406 C 22.886719 27.523438 22.867188 27.601562 22.824219 27.671875 C 22.78125 27.746094 22.726562 27.800781 22.652344 27.84375 C 22.582031 27.886719 22.503906 27.90625 22.421875 27.90625 Z M 1.273438 6.449219 C 1.179688 6.445312 1.097656 6.480469 1.03125 6.542969 C 0.964844 6.609375 0.933594 6.6875 0.933594 6.78125 L 0.933594 26.640625 C 0.933594 26.734375 0.964844 26.8125 1.03125 26.878906 C 1.097656 26.941406 1.175781 26.976562 1.269531 26.976562 L 21.617188 26.976562 L 21.21875 26.285156 C 21.164062 26.1875 21.144531 26.082031 21.164062 25.972656 C 21.183594 25.859375 21.234375 25.769531 21.320312 25.695312 L 22.101562 25.03125 C 21.574219 23.820312 21.929688 22.226562 22.121094 21.566406 L 21.308594 20.828125 C 21.226562 20.753906 21.175781 20.664062 21.160156 20.554688 C 21.144531 20.445312 21.164062 20.34375 21.21875 20.246094 L 22.597656 17.871094 C 22.65625 17.769531 22.742188 17.699219 22.851562 17.664062 C 22.960938 17.625 23.070312 17.628906 23.179688 17.671875 L 24.175781 18.078125 C 24.96875 16.851562 26.441406 16.492188 27.097656 16.394531 L 27.417969 15.339844 C 27.484375 15.121094 27.632812 15.011719 27.863281 15.011719 L 28.589844 15.011719 L 28.589844 6.78125 C 28.589844 6.6875 28.554688 6.609375 28.492188 6.546875 C 28.425781 6.480469 28.347656 6.449219 28.253906 6.449219 Z M 1.273438 6.449219 " fill-opacity="1" fill-rule="nonzero"/></g><path fill="#00bc91" d="M 29.058594 12.480469 L 0.464844 12.480469 C 0.335938 12.480469 0.226562 12.433594 0.136719 12.34375 C 0.046875 12.25 0 12.140625 0 12.011719 C 0 11.882812 0.046875 11.773438 0.136719 11.683594 C 0.226562 11.59375 0.335938 11.546875 0.464844 11.546875 L 29.058594 11.546875 C 29.1875 11.546875 29.296875 11.59375 29.386719 11.683594 C 29.476562 11.773438 29.523438 11.882812 29.523438 12.011719 C 29.523438 12.140625 29.476562 12.25 29.386719 12.34375 C 29.296875 12.433594 29.1875 12.480469 29.058594 12.480469 Z M 29.058594 12.480469 " fill-opacity="1" fill-rule="nonzero"/><path fill="#00bc91" d="M 3.714844 10.585938 C 3.492188 10.585938 3.277344 10.542969 3.070312 10.457031 C 2.863281 10.371094 2.683594 10.25 2.523438 10.089844 C 2.367188 9.933594 2.246094 9.75 2.160156 9.542969 C 2.074219 9.335938 2.03125 9.121094 2.03125 8.898438 C 2.03125 8.671875 2.074219 8.457031 2.160156 8.25 C 2.246094 8.042969 2.367188 7.863281 2.527344 7.703125 C 2.6875 7.546875 2.867188 7.425781 3.074219 7.339844 C 3.28125 7.253906 3.496094 7.210938 3.722656 7.210938 C 3.945312 7.210938 4.160156 7.253906 4.367188 7.339844 C 4.574219 7.425781 4.757812 7.546875 4.914062 7.707031 C 5.074219 7.863281 5.195312 8.046875 5.28125 8.253906 C 5.367188 8.460938 5.410156 8.675781 5.410156 8.898438 C 5.410156 9.125 5.363281 9.339844 5.277344 9.546875 C 5.191406 9.753906 5.070312 9.933594 4.910156 10.09375 C 4.753906 10.25 4.570312 10.375 4.363281 10.460938 C 4.15625 10.546875 3.941406 10.585938 3.714844 10.585938 Z M 3.714844 8.144531 C 3.507812 8.144531 3.332031 8.21875 3.183594 8.367188 C 3.035156 8.515625 2.964844 8.691406 2.964844 8.902344 C 2.964844 9.109375 3.039062 9.289062 3.1875 9.433594 C 3.335938 9.582031 3.511719 9.65625 3.722656 9.65625 C 3.929688 9.65625 4.109375 9.582031 4.253906 9.433594 C 4.402344 9.285156 4.476562 9.109375 4.476562 8.898438 C 4.476562 8.691406 4.402344 8.511719 4.253906 8.363281 C 4.105469 8.21875 3.925781 8.144531 3.714844 8.144531 Z M 3.714844 8.144531 " fill-opacity="1" fill-rule="nonzero"/><path fill="#00bc91" d="M 9.273438 10.585938 C 9.050781 10.585938 8.832031 10.542969 8.628906 10.457031 C 8.421875 10.371094 8.238281 10.25 8.082031 10.089844 C 7.921875 9.933594 7.800781 9.75 7.714844 9.542969 C 7.628906 9.335938 7.585938 9.121094 7.585938 8.898438 C 7.589844 8.671875 7.632812 8.457031 7.71875 8.25 C 7.804688 8.042969 7.925781 7.863281 8.082031 7.703125 C 8.242188 7.546875 8.425781 7.425781 8.632812 7.339844 C 8.839844 7.253906 9.054688 7.210938 9.277344 7.210938 C 9.5 7.210938 9.71875 7.253906 9.921875 7.339844 C 10.128906 7.425781 10.3125 7.546875 10.472656 7.707031 C 10.628906 7.863281 10.75 8.046875 10.835938 8.253906 C 10.921875 8.460938 10.964844 8.675781 10.964844 8.898438 C 10.964844 9.125 10.921875 9.339844 10.835938 9.546875 C 10.75 9.753906 10.625 9.933594 10.46875 10.09375 C 10.308594 10.25 10.125 10.375 9.917969 10.460938 C 9.710938 10.546875 9.496094 10.585938 9.273438 10.585938 Z M 9.273438 8.144531 C 9.066406 8.144531 8.886719 8.21875 8.738281 8.367188 C 8.59375 8.515625 8.519531 8.691406 8.519531 8.902344 C 8.519531 9.109375 8.59375 9.289062 8.742188 9.433594 C 8.890625 9.582031 9.070312 9.65625 9.277344 9.65625 C 9.484375 9.65625 9.664062 9.582031 9.8125 9.433594 C 9.957031 9.285156 10.03125 9.109375 10.03125 8.898438 C 10.03125 8.691406 9.957031 8.511719 9.808594 8.363281 C 9.660156 8.21875 9.480469 8.144531 9.273438 8.144531 Z M 9.273438 8.144531 " fill-opacity="1" fill-rule="nonzero"/><path fill="#00bc91" d="M 14.828125 10.585938 C 14.605469 10.585938 14.390625 10.542969 14.183594 10.457031 C 13.976562 10.371094 13.792969 10.25 13.636719 10.089844 C 13.480469 9.933594 13.355469 9.75 13.273438 9.542969 C 13.1875 9.335938 13.144531 9.121094 13.144531 8.898438 C 13.144531 8.671875 13.1875 8.457031 13.273438 8.25 C 13.359375 8.042969 13.480469 7.863281 13.640625 7.703125 C 13.796875 7.546875 13.980469 7.425781 14.1875 7.339844 C 14.394531 7.253906 14.609375 7.210938 14.835938 7.210938 C 15.058594 7.210938 15.273438 7.253906 15.480469 7.339844 C 15.6875 7.425781 15.871094 7.546875 16.027344 7.707031 C 16.1875 7.863281 16.308594 8.046875 16.394531 8.253906 C 16.480469 8.460938 16.519531 8.675781 16.519531 8.898438 C 16.519531 9.125 16.476562 9.339844 16.390625 9.546875 C 16.304688 9.753906 16.183594 9.933594 16.023438 10.09375 C 15.867188 10.25 15.683594 10.375 15.476562 10.460938 C 15.269531 10.546875 15.054688 10.585938 14.828125 10.585938 Z M 14.828125 8.144531 C 14.621094 8.144531 14.441406 8.21875 14.296875 8.367188 C 14.148438 8.515625 14.074219 8.691406 14.078125 8.902344 C 14.078125 9.109375 14.152344 9.289062 14.300781 9.433594 C 14.445312 9.582031 14.625 9.65625 14.832031 9.65625 C 15.042969 9.65625 15.21875 9.582031 15.367188 9.433594 C 15.515625 9.285156 15.589844 9.109375 15.589844 8.898438 C 15.589844 8.691406 15.515625 8.511719 15.367188 8.363281 C 15.21875 8.21875 15.039062 8.144531 14.828125 8.144531 Z M 14.828125 8.144531 " fill-opacity="1" fill-rule="nonzero"/><path fill="#00bc91" d="M 14.761719 20.953125 C 14.582031 20.953125 14.417969 20.90625 14.261719 20.816406 L 9.777344 18.207031 C 9.628906 18.121094 9.507812 18 9.421875 17.851562 C 9.335938 17.703125 9.289062 17.542969 9.285156 17.371094 C 9.28125 17.199219 9.320312 17.035156 9.402344 16.882812 C 9.484375 16.730469 9.597656 16.609375 9.742188 16.515625 L 14.226562 13.648438 C 14.585938 13.421875 14.941406 13.421875 15.296875 13.648438 L 19.78125 16.515625 C 19.925781 16.609375 20.039062 16.730469 20.121094 16.882812 C 20.203125 17.035156 20.242188 17.199219 20.238281 17.371094 C 20.234375 17.542969 20.191406 17.703125 20.101562 17.851562 C 20.015625 18 19.894531 18.121094 19.746094 18.207031 L 15.257812 20.816406 C 15.105469 20.90625 14.941406 20.953125 14.761719 20.953125 Z M 14.761719 14.425781 C 14.75 14.425781 14.738281 14.429688 14.730469 14.433594 L 10.242188 17.300781 C 10.222656 17.3125 10.214844 17.328125 10.21875 17.351562 C 10.214844 17.371094 10.226562 17.390625 10.246094 17.398438 L 14.730469 20.011719 C 14.75 20.023438 14.773438 20.023438 14.792969 20.011719 L 19.277344 17.402344 C 19.296875 17.390625 19.308594 17.375 19.304688 17.351562 C 19.308594 17.328125 19.300781 17.3125 19.28125 17.300781 L 14.792969 14.433594 C 14.785156 14.425781 14.773438 14.425781 14.761719 14.421875 Z M 14.761719 14.425781 " fill-opacity="1" fill-rule="nonzero"/><path fill="#00bc91" d="M 14.761719 23.570312 C 14.578125 23.570312 14.410156 23.523438 14.253906 23.433594 L 9.792969 20.835938 C 9.644531 20.746094 9.523438 20.628906 9.433594 20.476562 C 9.34375 20.324219 9.300781 20.164062 9.296875 19.988281 C 9.292969 19.8125 9.332031 19.648438 9.414062 19.492188 C 9.496094 19.339844 9.613281 19.214844 9.757812 19.121094 L 11.160156 18.226562 C 11.269531 18.15625 11.386719 18.136719 11.511719 18.164062 C 11.640625 18.191406 11.738281 18.257812 11.804688 18.367188 C 11.875 18.476562 11.894531 18.59375 11.867188 18.71875 C 11.839844 18.84375 11.773438 18.941406 11.664062 19.011719 L 10.261719 19.90625 C 10.238281 19.921875 10.226562 19.941406 10.226562 19.96875 C 10.226562 19.996094 10.238281 20.015625 10.265625 20.03125 L 14.722656 22.625 C 14.75 22.640625 14.773438 22.640625 14.800781 22.625 L 19.257812 20.027344 C 19.28125 20.015625 19.292969 19.996094 19.296875 19.96875 C 19.296875 19.941406 19.285156 19.921875 19.261719 19.90625 L 17.859375 19.011719 C 17.75 18.941406 17.683594 18.84375 17.65625 18.71875 C 17.628906 18.59375 17.648438 18.476562 17.71875 18.367188 C 17.789062 18.257812 17.886719 18.191406 18.011719 18.164062 C 18.136719 18.136719 18.253906 18.15625 18.363281 18.226562 L 19.765625 19.121094 C 19.910156 19.214844 20.027344 19.339844 20.109375 19.496094 C 20.191406 19.648438 20.230469 19.8125 20.226562 19.988281 C 20.222656 20.164062 20.175781 20.328125 20.089844 20.476562 C 20 20.628906 19.878906 20.746094 19.730469 20.835938 L 15.269531 23.433594 C 15.113281 23.523438 14.941406 23.570312 14.761719 23.570312 Z M 14.761719 23.570312 " fill-opacity="1" fill-rule="nonzero"/><path fill="#00bc91" d="M 14.761719 26.1875 C 14.582031 26.1875 14.414062 26.140625 14.257812 26.050781 L 9.792969 23.453125 C 9.644531 23.367188 9.523438 23.246094 9.433594 23.097656 C 9.34375 22.945312 9.300781 22.78125 9.296875 22.609375 C 9.292969 22.433594 9.332031 22.269531 9.414062 22.113281 C 9.496094 21.960938 9.613281 21.835938 9.757812 21.742188 L 11.160156 20.84375 C 11.269531 20.777344 11.386719 20.753906 11.511719 20.78125 C 11.636719 20.808594 11.734375 20.878906 11.804688 20.988281 C 11.875 21.09375 11.894531 21.210938 11.867188 21.335938 C 11.839844 21.464844 11.773438 21.5625 11.664062 21.628906 L 10.261719 22.527344 C 10.238281 22.539062 10.226562 22.5625 10.226562 22.589844 C 10.226562 22.617188 10.238281 22.636719 10.265625 22.648438 L 14.722656 25.246094 C 14.75 25.261719 14.773438 25.261719 14.800781 25.246094 L 19.257812 22.648438 C 19.285156 22.636719 19.296875 22.617188 19.296875 22.589844 C 19.296875 22.5625 19.285156 22.539062 19.261719 22.527344 L 17.859375 21.628906 C 17.75 21.5625 17.683594 21.464844 17.65625 21.335938 C 17.628906 21.210938 17.648438 21.09375 17.71875 20.988281 C 17.789062 20.878906 17.886719 20.808594 18.011719 20.78125 C 18.136719 20.753906 18.253906 20.777344 18.363281 20.84375 L 19.765625 21.742188 C 19.910156 21.835938 20.027344 21.960938 20.109375 22.113281 C 20.191406 22.269531 20.230469 22.433594 20.226562 22.609375 C 20.222656 22.78125 20.175781 22.945312 20.089844 23.097656 C 20 23.246094 19.878906 23.367188 19.730469 23.453125 L 15.269531 26.050781 C 15.113281 26.140625 14.941406 26.1875 14.761719 26.1875 Z M 14.761719 26.1875 " fill-opacity="1" fill-rule="nonzero"/><path fill="#00bc91" d="M 6.765625 15.429688 L 3.121094 15.429688 C 2.992188 15.429688 2.882812 15.386719 2.789062 15.292969 C 2.699219 15.203125 2.652344 15.09375 2.652344 14.964844 C 2.652344 14.835938 2.699219 14.726562 2.789062 14.636719 C 2.882812 14.542969 2.992188 14.5 3.121094 14.5 L 6.765625 14.5 C 6.894531 14.5 7.003906 14.542969 7.09375 14.636719 C 7.183594 14.726562 7.230469 14.835938 7.230469 14.964844 C 7.230469 15.09375 7.183594 15.203125 7.09375 15.292969 C 7.003906 15.386719 6.894531 15.429688 6.765625 15.429688 Z M 6.765625 15.429688 " fill-opacity="1" fill-rule="nonzero"/><path fill="#00bc91" d="M 6.765625 24.589844 L 3.121094 24.589844 C 2.992188 24.589844 2.882812 24.542969 2.789062 24.453125 C 2.699219 24.363281 2.652344 24.25 2.652344 24.125 C 2.652344 23.996094 2.699219 23.882812 2.789062 23.792969 C 2.882812 23.703125 2.992188 23.65625 3.121094 23.65625 L 6.765625 23.65625 C 6.894531 23.65625 7.003906 23.703125 7.09375 23.792969 C 7.183594 23.882812 7.230469 23.996094 7.230469 24.125 C 7.230469 24.25 7.183594 24.363281 7.09375 24.453125 C 7.003906 24.542969 6.894531 24.589844 6.765625 24.589844 Z M 6.765625 24.589844 " fill-opacity="1" fill-rule="nonzero"/></svg>